HIERARCHY
ROOT Hips
{
	OFFSET -0.001795 -0.223333 0.028219
	CHANNELS 6 Xposition Yposition Zposition Zrotation Yrotation Xrotation
	JOINT LeftUpLeg
	{
		OFFSET 0.069520 -0.091406 -0.006815
		CHANNELS 3 Zrotation Yrotation Xrotation
		JOINT LeftLeg
		{
			OFFSET 0.034277 -0.375199 -0.004496
			CHANNELS 3 Zrotation Yrotation Xrotation
			JOINT LeftFoot
			{
				OFFSET -0.013596 -0.397961 -0.043693
				CHANNELS 3 Zrotation Yrotation Xrotation
				JOINT LeftToe
				{
					OFFSET 0.026358 -0.055791 0.119288
					CHANNELS 3 Zrotation Yrotation Xrotation
					End Site
					{
						OFFSET 0.000000 0.000000 0.000000
					}
				}
			}
		}
	}
	JOINT RightUpLeg
	{
		OFFSET -0.067670 -0.090522 -0.004320
		CHANNELS 3 Zrotation Yrotation Xrotation
		JOINT RightLeg
		{
			OFFSET -0.038290 -0.382569 -0.008850
			CHANNELS 3 Zrotation Yrotation Xrotation
			JOINT RightFoot
			{
				OFFSET 0.015774 -0.398415 -0.042312
				CHANNELS 3 Zrotation Yrotation Xrotation
				JOINT RightToe
				{
					OFFSET -0.025372 -0.048144 0.123348
					CHANNELS 3 Zrotation Yrotation Xrotation
					End Site
					{
						OFFSET 0.000000 0.000000 0.000000
					}
				}
			}
		}
	}
	JOINT Spine
	{
		OFFSET -0.002533 0.108963 -0.026696
		CHANNELS 3 Zrotation Yrotation Xrotation
		JOINT Spine1
		{
			OFFSET 0.005487 0.135180 0.001092
			CHANNELS 3 Zrotation Yrotation Xrotation
			JOINT Spine2
			{
				OFFSET 0.001457 0.052922 0.025425
				CHANNELS 3 Zrotation Yrotation Xrotation
				JOINT Neck
				{
					OFFSET -0.002778 0.213870 -0.042857
					CHANNELS 3 Zrotation Yrotation Xrotation
					JOINT Head
					{
						OFFSET 0.005152 0.064970 0.051349
						CHANNELS 3 Zrotation Yrotation Xrotation
						End Site
						{
							OFFSET 0.000000 0.000000 0.000000
						}
					}
				}
				JOINT LeftShoulder
				{
					OFFSET 0.078845 0.121749 -0.034090
					CHANNELS 3 Zrotation Yrotation Xrotation
					JOINT LeftArm
					{
						OFFSET 0.090977 0.030469 -0.008868
						CHANNELS 3 Zrotation Yrotation Xrotation
						JOINT LeftForeArm
						{
							OFFSET 0.259612 -0.012772 -0.027456
							CHANNELS 3 Zrotation Yrotation Xrotation
							JOINT LeftHand
							{
								OFFSET 0.249234 0.008986 -0.001171
								CHANNELS 3 Zrotation Yrotation Xrotation
								End Site
								{
									OFFSET 0.000000 0.000000 0.000000
								}
							}
						}
					}
				}
				JOINT RightShoulder
				{
					OFFSET -0.081759 0.118833 -0.038615
					CHANNELS 3 Zrotation Yrotation Xrotation
					JOINT RightArm
					{
						OFFSET -0.096012 0.032551 -0.009143
						CHANNELS 3 Zrotation Yrotation Xrotation
						JOINT RightForeArm
						{
							OFFSET -0.253742 -0.013329 -0.021401
							CHANNELS 3 Zrotation Yrotation Xrotation
							JOINT RightHand
							{
								OFFSET -0.255298 0.007772 -0.005559
								CHANNELS 3 Zrotation Yrotation Xrotation
								End Site
								{
									OFFSET 0.000000 0.000000 0.000000
								}
							}
						}
					}
				}
			}
		}
	}
}
MOTION
Frames: 7
Frame Time: 0.050000
-0.392971 0.161486 0.583920 34.818784 23.254946 -55.360846 -7.399801 -5.384378 -25.134347 47.487114 -27.237264 38.531947 -35.133322 -62.780001 7.905220 0.000000 0.000000 0.000000 0.738418 1.325885 -16.003310 41.569813 -21.702684 41.509361 -6.066245 -29.320419 -73.739480 0.000000 0.000000 0.000000 61.289030 15.360712 -21.629336 -18.386962 8.746067 3.176057 -40.964433 -29.931922 52.444102 -5.243812 -1.491474 -28.300395 0.000000 0.000000 0.000000 -7.110288 -8.040400 5.896060 -64.384599 -18.806952 3.532383 -31.228206 -69.299308 37.800309 0.000000 0.000000 0.000000 -31.464953 19.082866 8.967881 66.194431 46.875102 1.441768 -127.332415 56.425114 -95.888687 0.000000 0.000000 0.000000
-0.393062 0.161173 0.584742 33.210192 22.879585 -56.723030 -6.865524 -5.315129 -25.403525 43.673945 -24.521265 37.561025 -37.607380 -55.024961 16.394176 0.000000 0.000000 0.000000 1.304840 1.387633 -15.388464 39.455761 -18.468982 36.239097 -5.760620 -30.321783 -73.110613 0.000000 0.000000 0.000000 59.237620 16.351062 -23.957353 -18.887966 9.118003 4.461708 -38.509447 -29.213921 52.224814 -5.021736 -1.471197 -29.168047 0.000000 0.000000 0.000000 -8.194693 -7.042749 5.842786 -62.175244 -17.974001 1.798416 -36.571584 -65.651264 39.339052 0.000000 0.000000 0.000000 -30.192322 18.041681 8.510183 70.666596 41.359000 -0.015391 -128.929717 61.645017 -102.751271 0.000000 0.000000 0.000000
-0.392805 0.159916 0.584419 31.404755 22.179539 -58.549497 -6.449528 -5.075420 -24.811913 41.192103 -22.429816 36.262402 -38.133402 -49.167059 21.563977 0.000000 0.000000 0.000000 1.300336 1.486093 -16.299503 34.649763 -15.318384 34.507195 -6.439109 -29.032765 -69.409781 0.000000 0.000000 0.000000 57.789416 17.343917 -25.776455 -19.075059 9.447302 6.343212 -36.750089 -28.908981 51.325232 -5.007502 -1.446870 -26.678706 0.000000 0.000000 0.000000 -10.071099 -7.412573 6.865811 -58.676828 -15.593665 -1.004362 -43.926738 -64.005164 43.579646 0.000000 0.000000 0.000000 -28.037929 19.170090 8.327092 72.097412 35.830264 -2.085902 -126.156175 65.497636 -104.058941 0.000000 0.000000 0.000000
-0.392241 0.157127 0.583557 29.928211 22.086314 -60.404973 -5.748159 -4.864574 -24.635916 38.252032 -20.914878 36.100360 -37.969517 -43.223542 26.296433 0.000000 0.000000 0.000000 0.123979 1.307089 -17.128068 33.888810 -14.839711 34.207828 -6.909971 -29.110794 -65.056809 0.000000 0.000000 0.000000 54.094873 17.324536 -27.234083 -18.262502 9.173009 7.766040 -33.908318 -27.937147 50.342105 -5.559854 -0.878778 -25.152268 0.000000 0.000000 0.000000 -10.866021 -7.396681 7.020114 -57.529494 -15.457097 -1.802110 -47.282484 -64.004017 45.813258 0.000000 0.000000 0.000000 -24.196627 19.004341 7.704610 72.552804 31.089042 -3.051208 -118.630520 69.113987 -98.780260 0.000000 0.000000 0.000000
-0.391286 0.157084 0.582436 28.525354 21.466559 -61.527309 -4.926677 -4.621504 -24.764274 36.207009 -20.157030 36.754133 -37.936345 -39.449049 29.714286 0.000000 0.000000 0.000000 -0.795276 1.212634 -18.432920 33.480289 -14.062253 32.858077 -7.227794 -30.624867 -60.134492 0.000000 0.000000 0.000000 51.972815 17.644287 -28.846535 -17.770378 9.065642 8.908174 -31.630801 -26.882124 49.598273 -6.105798 -0.246077 -22.156887 0.000000 0.000000 0.000000 -11.077493 -8.333185 7.457489 -56.889713 -14.294282 -2.760478 -53.725367 -63.627727 50.412622 0.000000 0.000000 0.000000 -21.890322 20.590538 7.556827 71.996396 28.696544 -3.306643 -113.034297 67.411319 -90.557796 0.000000 0.000000 0.000000
-0.390238 0.156058 0.581304 27.273238 21.422142 -62.174141 -4.069578 -4.464684 -25.155514 33.602873 -19.210566 37.293335 -37.049973 -38.427857 29.497773 0.000000 0.000000 0.000000 -2.590806 0.892907 -20.908034 33.291236 -15.036871 36.143375 -7.816586 -28.882512 -57.234377 0.000000 0.000000 0.000000 49.277730 17.188983 -29.840504 -18.104847 9.109596 8.288468 -28.085600 -24.144149 49.227957 -6.412438 0.587550 -19.713254 0.000000 0.000000 0.000000 -11.673258 -8.829850 7.543271 -56.926842 -14.032383 -3.550782 -58.899071 -62.369821 52.957191 0.000000 0.000000 0.000000 -16.919585 21.694134 7.092179 69.281936 25.177841 -2.938543 -108.654952 66.498346 -83.876611 0.000000 0.000000 0.000000
-0.388655 0.156810 0.580298 25.785590 21.131581 -62.964919 -3.332571 -4.260265 -25.209023 31.678325 -18.763122 38.267082 -35.271808 -36.076638 29.365025 0.000000 0.000000 0.000000 -4.140197 0.524957 -22.476159 33.619820 -15.450316 36.926711 -8.423154 -29.506187 -51.030013 0.000000 0.000000 0.000000 46.874296 17.140310 -31.678545 -18.630998 9.440241 9.108051 -24.340109 -22.218530 48.196318 -8.061953 2.533141 -16.618484 0.000000 0.000000 0.000000 -11.154853 -9.672958 7.457483 -58.106181 -13.824000 -3.762941 -59.027653 -61.463586 51.596657 0.000000 0.000000 0.000000 -14.029580 23.462677 7.188586 68.322118 22.933149 -2.787343 -107.076539 63.542983 -77.697926 0.000000 0.000000 0.000000
